<svg width="100%" height="100%" viewBox="0 0 253 22" fill="none" xmlns="http://www.w3.org/2000/svg">
<path d="M10 0.5H243C248.247 0.5 252.5 4.7533 252.5 10V12C252.5 17.2467 248.247 21.5 243 21.5H10C4.75329 21.5 0.5 17.2467 0.5 12V10C0.5 4.75329 4.75329 0.5 10 0.5Z" fill="black" stroke="white"/>
<circle cx="242" cy="11" r="9" fill="#D9D9D9"/>
<path d="M242.354 6.64645C242.158 6.45118 241.842 6.45118 241.646 6.64645L238.464 9.82843C238.269 10.0237 238.269 10.3403 238.464 10.5355C238.66 10.7308 238.976 10.7308 239.172 10.5355L242 7.70711L244.828 10.5355C245.024 10.7308 245.34 10.7308 245.536 10.5355C245.731 10.3403 245.731 10.0237 245.536 9.82843L242.354 6.64645ZM242.5 16V7H241.5V16H242.5Z" fill="black"/>
</svg>
